<svg width="58" height="58" viewBox="0 0 58 58" fill="none" xmlns="http://www.w3.org/2000/svg">
<path fill-rule="evenodd" clip-rule="evenodd" d="M0 29C0 44.9907 13.0093 58 29 58C44.9907 58 58 44.9907 58 29C58 13.0093 44.9907 0 29 0C13.0093 0 0 13.0093 0 29ZM4.87598 29C4.87598 15.7006 15.7007 4.87585 29 4.87939V4.87585C42.303 4.87585 53.1206 15.7006 53.1206 29C53.1206 42.2993 42.303 53.1206 29 53.1206C15.697 53.1206 4.87598 42.2993 4.87598 29ZM10.5625 26.2422C10.9226 23.2573 9.49292 23.5509 9.49292 23.5509C9.52441 23.9808 8.72412 24.8966 8.72412 24.8966C5.88599 31.4467 11.2371 37.2906 11.2371 37.2906C15.6587 42.6455 20.2444 41.7576 20.2444 41.7576C21.4712 41.4604 19.0071 40.3911 19.0071 40.3911C9.96826 35.0223 10.5625 26.2422 10.5625 26.2422ZM48.762 26.8538C48.762 26.8538 47.0181 26.2421 46.9375 28.9299C46.9375 28.9299 45.5396 37.6401 38.5701 40.3245C38.5701 40.3245 36.4622 41.3484 37.5073 41.7715C37.5073 41.7715 41.02 42.7571 45.6372 38.6223C45.6372 38.6223 50.8906 34.2986 49.262 28.1365C49.262 28.1365 48.6824 27.2297 48.762 26.8538ZM16.4521 21.6149C16.3088 19.993 14.1628 19.1611 14.1628 19.1611L14.1592 19.1681C14.1138 19.7693 13.5266 20.4579 13.5266 20.4579C11.052 24.8933 11.8665 30.0453 11.8665 30.0453C13.9705 39.4441 22.6492 41.377 22.6492 41.377C24.9385 41.7229 24.0999 40.3806 24.0999 40.3806C16.0327 35.4175 16.4521 21.6149 16.4521 21.6149ZM44.1938 20.8625C44.1938 20.8625 41.8662 20.6459 41.646 22.2257C41.646 22.2257 41.4851 35.8711 34.1975 40.1702C34.1975 40.1702 33.3936 41.4285 35.3965 41.2468C35.3965 41.2468 42.719 39.8627 45.1062 30.7994C45.1062 30.7994 46.7839 26.5773 44.907 22.0544C44.907 22.0544 44.1975 21.4532 44.1938 20.8661V20.8625ZM22.5198 16.1729C21.6145 15.6101 19.9578 15.418 19.9578 15.418H19.9543C19.9543 16.2917 19.3076 16.9104 19.3076 16.9104C17.5845 21.0663 17.9236 27.2528 17.9236 27.2528C18.3674 38.2034 25.9661 40.5208 25.9661 40.5208C29.4858 41.7896 27.9653 39.7972 27.9653 39.7972C23.0229 31.5903 23.6663 22.1952 23.6663 22.1952C23.5928 17.8367 22.5198 16.1729 22.5198 16.1729ZM27.623 13.4429C27.623 13.4429 29.3811 13.303 29.6223 13.5931C29.6223 13.5931 30.1326 14.8375 30.468 15.6693C30.468 15.6693 31.8242 18.1125 31.7717 26.8191C31.7717 26.8191 31.3418 40.2583 30.0662 40.2932C30.0662 40.2932 28.2556 42.9707 25.676 32.796C25.676 32.796 23.6699 25.0016 26.5603 15.9734C26.5603 15.9734 27.5076 14.1069 27.623 13.4464V13.4429ZM31.2859 39.1848C33.5823 17.5212 35.3545 14.6377 35.3545 14.6377H35.3579C36.5078 15.3298 37.616 15.7457 37.616 15.7457C40.3318 20.5726 39.2585 29.468 39.2585 29.468C37.0601 40.887 32.1914 40.5898 32.1914 40.5898C30.6604 40.4709 31.2859 39.1848 31.2859 39.1848Z" fill="black"/>
</svg>
