<svg width="347" height="121" viewBox="0 0 347 121" fill="none" xmlns="http://www.w3.org/2000/svg">
<g clip-path="url(#clip0_2233_209)">
<path d="M60.2805 120.94C27.0416 120.94 0 93.8984 0 60.6594C0 27.4205 27.0416 0.378906 60.2805 0.378906C93.5195 0.378906 120.561 27.4205 120.561 60.6594C120.561 93.8984 93.5195 120.94 60.2805 120.94ZM60.2805 10.5213C32.6359 10.5141 10.1351 33.0148 10.1351 60.6594C10.1351 88.3041 32.6286 110.798 60.2805 110.798C87.9324 110.798 110.419 88.3041 110.419 60.6594C110.419 33.0148 87.9324 10.5141 60.2805 10.5141V10.5213Z" fill="white"/>
<path d="M19.7327 49.3329C19.7327 49.3329 22.7043 48.7226 21.9559 54.9272C21.9559 54.9272 20.7208 73.1777 39.509 84.3373C39.509 84.3373 44.6311 86.5605 42.0809 87.1781C42.0809 87.1781 32.5488 89.0235 23.3581 77.893C23.3581 77.893 12.2349 65.7453 18.1344 52.1301C18.1344 52.1301 19.7981 50.2265 19.7327 49.3329Z" fill="white"/>
<path d="M101.358 56.1986C101.358 56.1986 97.7328 54.9272 97.5657 60.5142C97.5657 60.5142 94.6596 78.6194 80.1725 84.1992C80.1725 84.1992 75.7915 86.328 77.9639 87.2071C77.9639 87.2071 85.2655 89.2559 94.863 80.661C94.863 80.661 105.783 71.6738 102.397 58.865C102.397 58.865 101.184 56.9687 101.358 56.1913V56.1986Z" fill="white"/>
<path d="M29.4394 40.208C29.4394 40.208 33.9004 41.9372 34.1982 45.3083C34.1982 45.3083 33.3264 73.9991 50.0948 84.3159C50.0948 84.3159 51.8385 87.1058 47.0797 86.3865C47.0797 86.3865 29.0399 82.3688 24.6661 62.8323C24.6661 62.8323 22.9733 52.1232 28.1172 42.9034C28.1172 42.9034 29.3377 41.4722 29.4322 40.2225L29.4394 40.208Z" fill="white"/>
<path d="M91.8632 43.7455C91.8632 43.7455 87.0245 43.295 86.5667 46.579C86.5667 46.579 86.2325 74.9429 71.0843 83.8792C71.0843 83.8792 69.4133 86.4948 73.5763 86.117C73.5763 86.117 88.7972 83.2399 93.7594 64.4009C93.7594 64.4009 97.2468 55.6243 93.3453 46.223C93.3453 46.223 91.8704 44.9733 91.8632 43.7528V43.7455Z" fill="white"/>
<path d="M41.4858 32.4258C41.4858 32.4258 44.9296 32.8254 46.8113 33.9951C46.8113 33.9951 49.0418 37.4534 49.1944 46.5133C49.1944 46.5133 47.8575 66.0425 58.1307 83.1015C58.1307 83.1015 61.2912 87.2428 53.975 84.6055C53.975 84.6055 38.1801 79.7885 37.2574 57.0262C37.2574 57.0262 36.5527 44.1666 40.1345 35.5281C40.1345 35.5281 41.4786 34.2421 41.4786 32.4258H41.4858Z" fill="white"/>
<path d="M57.4177 28.321C57.4177 28.321 61.0722 28.0304 61.5735 28.6334C61.5735 28.6334 62.6342 31.2199 63.3317 32.949C63.3317 32.949 66.1506 38.0275 66.0417 56.1254C66.0417 56.1254 65.148 84.0607 62.4962 84.1333C62.4962 84.1333 58.7327 89.6986 53.3709 68.5492C53.3709 68.5492 49.2006 52.3475 55.209 33.5811C55.209 33.5811 57.1779 29.7014 57.4177 28.3282V28.321Z" fill="white"/>
<path d="M73.4885 30.8057C73.4885 30.8057 69.805 36.7996 65.0316 81.8301C65.0316 81.8301 63.7311 84.5038 66.9133 84.7508C66.9133 84.7508 77.034 85.3684 81.6039 61.6325C81.6039 61.6325 83.8343 43.1422 78.1892 33.1088C78.1892 33.1088 75.886 32.2442 73.4957 30.8057H73.4885Z" fill="white"/>
<path d="M148.358 39.0882C148.358 42.067 147.298 44.5444 145.176 46.5351C143.055 48.5186 140.49 49.5139 137.489 49.5139H129.352V23.1553H132.6V28.6624H137.664C139.705 28.6624 141.572 29.1492 143.265 30.13C144.951 31.1108 146.251 32.484 147.167 34.2567C147.966 35.7897 148.366 37.4026 148.366 39.0882H148.358ZM132.593 46.121H137.33C139.466 46.121 141.26 45.4671 142.706 44.1594C144.152 42.8516 144.878 41.1588 144.878 39.0736C144.878 36.9885 144.137 35.2085 142.655 33.7917C141.173 32.375 139.371 31.663 137.228 31.663H132.585V46.1138L132.593 46.121Z" fill="white"/>
<path d="M167.895 49.5074V31.6709H163.267C161.138 31.6709 159.329 32.3829 157.839 33.8069C156.35 35.231 155.609 36.9964 155.609 39.1034C155.609 41.2103 156.343 42.9758 157.803 44.3853C159.271 45.7948 161.058 46.4995 163.165 46.4995C164.429 46.4995 165.599 46.1944 166.66 45.5913V48.9552C165.257 49.4202 164.037 49.6527 162.991 49.6527C159.99 49.6527 157.425 48.6355 155.304 46.6085C153.182 44.5742 152.122 42.0676 152.122 39.0961C152.122 37.4106 152.514 35.7976 153.291 34.2647C154.229 32.4847 155.536 31.1115 157.229 30.1307C158.922 29.1499 160.789 28.6631 162.831 28.6631H171.135V49.5146H167.887L167.895 49.5074Z" fill="white"/>
<path d="M193.992 37.4684V49.507H190.693V37.6355C190.693 35.899 190.134 34.4314 189.022 33.2327C187.903 32.0339 186.479 31.4309 184.743 31.4309C183.006 31.4309 181.575 32.0266 180.464 33.2181C179.352 34.4096 178.793 35.8772 178.793 37.6355V49.507H175.407V28.6555H178.793V30.8133C179.904 29.9415 180.878 29.3312 181.699 28.997C182.701 28.5465 183.813 28.3213 185.041 28.3213C187.533 28.3213 189.654 29.2149 191.391 31.0095C193.127 32.7967 193.999 34.9545 193.999 37.4611L193.992 37.4684Z" fill="white"/>
<path d="M213.775 49.5074V31.6709H209.147C207.019 31.6709 205.21 32.3829 203.72 33.8069C202.231 35.231 201.49 36.9964 201.49 39.1034C201.49 41.2103 202.224 42.9758 203.691 44.3853C205.159 45.7948 206.946 46.4995 209.053 46.4995C210.317 46.4995 211.487 46.1944 212.548 45.5913V48.9552C211.145 49.4202 209.925 49.6527 208.879 49.6527C205.878 49.6527 203.313 48.6355 201.192 46.6085C199.07 44.5742 198.01 42.0676 198.01 39.0961C198.01 37.4106 198.402 35.7976 199.179 34.2647C200.117 32.4847 201.424 31.1115 203.117 30.1307C204.81 29.1499 206.677 28.6631 208.719 28.6631H217.023V49.5146H213.775V49.5074Z" fill="white"/>
<path d="M239.872 37.4684V49.507H236.581V37.6355C236.581 35.899 236.022 34.4314 234.91 33.2327C233.799 32.0339 232.367 31.4309 230.631 31.4309C228.894 31.4309 227.463 32.0266 226.352 33.2181C225.24 34.4096 224.681 35.8772 224.681 37.6355V49.507H221.295V28.6555H224.681V30.8133C225.792 29.9415 226.766 29.3312 227.587 28.997C228.589 28.5465 229.701 28.3213 230.929 28.3213C233.421 28.3213 235.535 29.2149 237.279 31.0095C239.015 32.7967 239.887 34.9545 239.887 37.4611L239.872 37.4684Z" fill="white"/>
<path d="M259.656 49.5074V31.6709H255.028C252.899 31.6709 251.09 32.3829 249.601 33.8069C248.111 35.231 247.37 36.9964 247.37 39.1034C247.37 41.2103 248.104 42.9758 249.564 44.3853C251.032 45.7948 252.819 46.4995 254.926 46.4995C256.19 46.4995 257.353 46.1944 258.421 45.5913V48.9552C257.018 49.4202 255.798 49.6527 254.752 49.6527C251.751 49.6527 249.186 48.6355 247.065 46.6085C244.943 44.5742 243.883 42.0676 243.883 39.0961C243.883 37.4106 244.275 35.7976 245.052 34.2647C245.99 32.4847 247.297 31.1115 248.99 30.1307C250.683 29.1499 252.55 28.6631 254.592 28.6631H262.896V49.5146H259.649L259.656 49.5074Z" fill="white"/>
<path d="M280.566 34.2499C281.503 32.4699 282.811 31.0967 284.504 30.1159C286.197 29.1351 288.064 28.6483 290.105 28.6483H295.176V23.1484H298.41V49.5071H290.272C287.25 49.5071 284.678 48.5117 282.571 46.5283C280.457 44.5376 279.403 42.0601 279.403 39.0813C279.403 37.3958 279.796 35.7829 280.573 34.2499H280.566ZM295.169 31.6489H290.534C288.398 31.6489 286.589 32.3609 285.099 33.7849C283.61 35.2089 282.862 36.9744 282.862 39.0886C282.862 41.2028 283.588 42.8811 285.049 44.1889C286.502 45.5039 288.296 46.1578 290.432 46.1578H295.169V31.6562V31.6489Z" fill="white"/>
<path d="M318.338 49.5074V31.6709H313.71C311.582 31.6709 309.772 32.3829 308.283 33.8069C306.794 35.231 306.053 36.9964 306.053 39.1034C306.053 41.2103 306.786 42.9758 308.247 44.3853C309.714 45.7948 311.502 46.4995 313.609 46.4995C314.873 46.4995 316.035 46.1944 317.103 45.5913V48.9552C315.701 49.4202 314.48 49.6527 313.434 49.6527C310.434 49.6527 307.869 48.6355 305.747 46.6085C303.626 44.5742 302.565 42.0676 302.565 39.0961C302.565 37.4106 302.958 35.7976 303.735 34.2647C304.672 32.4847 305.98 31.1115 307.673 30.1307C309.366 29.1499 311.233 28.6631 313.274 28.6631H321.579V49.5146H318.331L318.338 49.5074Z" fill="white"/>
<path d="M158.574 94.1237H153.488V75.8877C153.488 73.2213 152.631 70.969 150.923 69.1236C149.216 67.2783 147.022 66.3556 144.355 66.3556C141.689 66.3556 139.502 67.271 137.787 69.0946C136.08 70.9182 135.223 73.185 135.223 75.8804V94.1164H129.948V62.0181H135.223V65.3166C136.93 63.9943 138.42 63.0789 139.684 62.563C141.224 61.8874 142.931 61.5459 144.813 61.5459C147.203 61.5459 149.412 62.1199 151.432 63.2533C153.452 64.3939 155.072 65.9196 156.307 67.8232C157.709 65.9487 159.496 64.4375 161.669 63.2823C163.841 62.1271 166.05 61.5459 168.309 61.5459C172.174 61.5459 175.436 62.919 178.103 65.6726C180.769 68.4262 182.106 71.7319 182.106 75.5971V94.1091H177.02V75.8732C177.02 73.2068 176.163 70.9545 174.448 69.1091C172.734 67.2637 170.561 66.341 167.924 66.341C165.287 66.341 163.027 67.2492 161.247 69.0583C159.467 70.8673 158.574 73.0905 158.574 75.7206V94.1091V94.1237Z" fill="white"/>
<path d="M209.416 94.1237V66.6389H202.253C198.954 66.6389 196.157 67.736 193.854 69.9301C191.551 72.1242 190.403 74.8487 190.403 78.1036C190.403 81.3585 191.536 84.0757 193.796 86.248C196.063 88.4276 198.824 89.5102 202.086 89.5102C204.04 89.5102 205.842 89.0234 207.491 88.0353V93.23C205.341 93.9493 203.459 94.3126 201.853 94.3126C197.24 94.3126 193.295 92.7505 190.032 89.6264C186.77 86.5023 185.136 82.6444 185.136 78.0673C185.136 75.4735 185.731 72.9961 186.93 70.6348C188.369 67.903 190.388 65.7816 192.989 64.2776C195.59 62.7737 198.468 62.0254 201.621 62.0254H214.408V94.1237H209.416Z" fill="white"/>
<path d="M219.282 70.6127C220.721 67.8737 222.733 65.7522 225.334 64.2483C227.935 62.7444 230.805 61.9888 233.951 61.9888H241.747V53.5537H246.716V94.1234H234.205C229.555 94.1234 225.61 92.5904 222.363 89.5317C219.115 86.4657 217.488 82.6441 217.488 78.0597C217.488 75.4587 218.083 72.9812 219.282 70.6127ZM241.739 66.6023H234.612C231.328 66.6023 228.546 67.6993 226.257 69.8862C223.968 72.0731 222.82 74.7903 222.82 78.0379C222.82 81.2855 223.939 83.8647 226.177 85.8845C228.415 87.9042 231.176 88.9069 234.46 88.9069H241.739V66.6023Z" fill="white"/>
<path d="M278.182 75.6261C277.223 69.4506 273.351 66.3556 266.58 66.3556C263.187 66.3556 260.273 67.5035 257.825 69.7993C255.376 72.0952 254.17 74.8851 254.207 78.1763C254.243 81.3948 255.391 84.1411 257.672 86.4006C259.946 88.6601 262.693 89.7935 265.911 89.7935C268.65 89.7935 271.251 89.2704 273.714 88.2315C276.584 86.9819 278.422 85.289 279.207 83.1675L282.643 86.5096C281.241 89.1542 279.003 91.174 275.93 92.5834C273.126 93.9203 270.016 94.5887 266.594 94.5887C261.806 94.5887 257.716 93.0048 254.316 89.8444C250.915 86.684 249.215 82.7752 249.215 78.1181C249.215 73.4611 250.923 69.5814 254.345 66.3701C257.759 63.1515 261.85 61.5459 266.601 61.5459C271.731 61.5822 275.741 62.7447 278.647 65.0405C282.098 67.7505 283.827 71.9499 283.827 77.6459C283.827 78.3361 283.806 79.0554 283.777 79.8037H259.162V75.6625H278.131L278.182 75.6116V75.6261Z" fill="white"/>
<path d="M291.311 94.1232H286.044V61.5527H291.311V94.1232ZM286.225 56.2127C286.225 55.5152 286.472 54.9122 286.974 54.4109C287.468 53.9023 288.063 53.6553 288.746 53.6553C289.429 53.6553 290.069 53.9096 290.57 54.4109C291.064 54.9194 291.311 55.5152 291.311 56.2127C291.311 56.9465 291.064 57.564 290.57 58.0726C290.076 58.5812 289.466 58.8282 288.746 58.8282C288.027 58.8282 287.468 58.5739 286.974 58.0726C286.48 57.564 286.225 56.9465 286.225 56.2127Z" fill="white"/>
<path d="M307.142 66.3556C304.512 66.3556 302.325 67.271 300.603 69.0946C298.874 70.9182 298.017 73.185 298.017 75.8804V94.1164H292.742V62.0181H298.017V65.3166C299.724 63.9943 301.214 63.0789 302.478 62.563C304.018 61.8874 305.725 61.5459 307.607 61.5459C311.952 61.5459 315.504 63.246 318.28 66.6534L313.768 69.1091C312.024 67.271 309.816 66.3483 307.149 66.3483L307.142 66.3556Z" fill="white"/>
<path d="M342.016 94.1237V66.6389H334.852C331.554 66.6389 328.757 67.736 326.454 69.9301C324.15 72.1242 323.003 74.8487 323.003 78.1036C323.003 81.3585 324.136 84.0757 326.395 86.248C328.662 88.4276 331.423 89.5102 334.685 89.5102C336.64 89.5102 338.441 89.0234 340.091 88.0353V93.23C337.94 93.9493 336.058 94.3126 334.453 94.3126C329.839 94.3126 325.901 92.7505 322.632 89.6264C319.363 86.5023 317.735 82.6444 317.735 78.0673C317.735 75.4735 318.331 72.9961 319.53 70.6348C320.968 67.903 322.988 65.7816 325.589 64.2776C328.19 62.7737 331.067 62.0254 334.213 62.0254H347V94.1237H342.009H342.016Z" fill="white"/>
<path d="M186.327 101.418H184.641V102.551H186.523V103.169H183.885V99.1875H186.428V99.8051H184.641V100.808H186.327V101.425V101.418Z" fill="white"/>
<path d="M187.192 101.164C187.192 100.83 187.184 100.539 187.17 100.292H187.816L187.853 100.742H187.875C188.013 100.517 188.289 100.227 188.834 100.227C189.24 100.227 189.56 100.459 189.691 100.793H189.705C189.814 100.626 189.945 100.503 190.076 100.415C190.258 100.292 190.454 100.227 190.723 100.227C191.202 100.227 191.762 100.546 191.762 101.534V103.169H191.028V101.629C191.028 101.106 190.824 100.83 190.454 100.83C190.178 100.83 189.974 101.026 189.894 101.229C189.865 101.302 189.851 101.396 189.851 101.476V103.169H189.117V101.563C189.117 101.106 188.913 100.83 188.565 100.83C188.252 100.83 188.056 101.077 187.984 101.258C187.954 101.338 187.947 101.425 187.947 101.505V103.169H187.213V101.164H187.192Z" fill="white"/>
<path d="M192.582 101.266C192.582 100.895 192.575 100.575 192.561 100.299H193.229L193.265 100.771H193.28C193.52 100.43 193.89 100.227 194.391 100.227C195.082 100.227 195.714 100.771 195.714 101.68C195.714 102.726 194.995 103.242 194.275 103.242C193.876 103.242 193.527 103.089 193.36 102.828H193.345V104.346H192.582V101.258V101.266ZM193.345 101.919C193.345 101.985 193.345 102.043 193.36 102.101C193.432 102.399 193.723 102.668 194.101 102.668C194.609 102.668 194.936 102.304 194.936 101.723C194.936 101.236 194.653 100.808 194.123 100.808C193.774 100.808 193.454 101.04 193.367 101.404C193.353 101.462 193.338 101.52 193.338 101.578V101.912L193.345 101.919Z" fill="white"/>
<path d="M196.353 101.258C196.353 100.836 196.353 100.553 196.332 100.291H196.986L197.015 100.873H197.036C197.189 100.429 197.552 100.219 197.894 100.219C197.966 100.219 198.01 100.219 198.075 100.233V100.938C198.003 100.923 197.937 100.909 197.836 100.909C197.443 100.909 197.196 101.141 197.138 101.476C197.131 101.541 197.124 101.606 197.124 101.679V103.161H196.361V101.25L196.353 101.258Z" fill="white"/>
<path d="M199.085 101.948C199.107 102.428 199.55 102.675 200.059 102.675C200.436 102.675 200.698 102.624 200.945 102.53L201.061 103.046C200.792 103.154 200.429 103.242 199.964 103.242C198.969 103.242 198.366 102.653 198.366 101.774C198.366 101.033 198.853 100.227 199.884 100.227C200.916 100.227 201.236 101.069 201.236 101.651C201.236 101.774 201.221 101.89 201.207 101.948H199.092H199.085ZM200.509 101.425C200.509 101.222 200.407 100.735 199.833 100.735C199.325 100.735 199.121 101.142 199.078 101.425H200.509Z" fill="white"/>
<path d="M201.817 102.479C201.998 102.588 202.347 102.711 202.63 102.711C202.979 102.711 203.124 102.573 203.124 102.392C203.124 102.188 202.993 102.101 202.608 101.985C201.998 101.81 201.737 101.498 201.744 101.142C201.744 100.633 202.187 100.227 202.906 100.227C203.248 100.227 203.56 100.306 203.742 100.408L203.589 100.931C203.466 100.866 203.197 100.75 202.906 100.75C202.637 100.75 202.478 100.873 202.478 101.055C202.478 101.236 202.638 101.331 203.03 101.454C203.604 101.622 203.851 101.883 203.858 102.334C203.858 102.835 203.451 103.242 202.616 103.242C202.223 103.242 201.889 103.154 201.649 103.031L201.802 102.479H201.817Z" fill="white"/>
<path d="M206.278 103.169L206.227 102.842H206.205C206.023 103.075 205.689 103.242 205.275 103.242C204.636 103.242 204.309 102.798 204.309 102.384C204.309 101.665 204.963 101.28 206.161 101.287V101.251C206.161 101.098 206.103 100.75 205.522 100.75C205.217 100.75 204.883 100.851 204.672 100.982L204.519 100.495C204.759 100.35 205.159 100.227 205.645 100.227C206.626 100.227 206.917 100.83 206.917 101.469V102.464C206.917 102.74 206.931 102.995 206.968 103.169H206.278ZM206.183 101.774C205.58 101.767 205.071 101.883 205.071 102.304C205.071 102.573 205.26 102.711 205.522 102.711C205.856 102.711 206.081 102.501 206.161 102.29C206.176 102.239 206.183 102.181 206.183 102.13V101.781V101.774Z" fill="white"/>
<path d="M211.959 98.9404V102.355C211.959 102.668 211.966 102.987 211.981 103.169H211.298L211.269 102.675H211.254C211.058 103.038 210.666 103.242 210.208 103.242C209.474 103.242 208.857 102.668 208.857 101.774C208.857 100.822 209.51 100.226 210.273 100.226C210.716 100.226 211.036 100.408 211.181 100.619H211.196V98.9404H211.959ZM211.196 101.527C211.196 101.469 211.196 101.389 211.174 101.331C211.094 101.033 210.825 100.793 210.455 100.793C209.939 100.793 209.627 101.193 209.627 101.73C209.627 102.268 209.925 102.631 210.448 102.631C210.804 102.631 211.102 102.384 211.167 102.057C211.181 101.985 211.189 101.912 211.189 101.839V101.52L211.196 101.527Z" fill="white"/>
<path d="M213.318 101.948C213.34 102.428 213.783 102.675 214.291 102.675C214.669 102.675 214.931 102.624 215.178 102.53L215.294 103.046C215.025 103.154 214.662 103.242 214.197 103.242C213.202 103.242 212.598 102.653 212.598 101.774C212.598 101.033 213.085 100.227 214.117 100.227C215.149 100.227 215.468 101.069 215.468 101.651C215.468 101.774 215.454 101.89 215.439 101.948H213.325H213.318ZM214.742 101.425C214.742 101.222 214.64 100.735 214.066 100.735C213.558 100.735 213.354 101.142 213.311 101.425H214.742Z" fill="white"/>
<path d="M220.975 102.966C220.692 103.067 220.14 103.213 219.522 103.213C218.76 103.213 218.193 103.024 217.779 102.639C217.408 102.297 217.198 101.789 217.198 101.222C217.198 100.038 218.127 99.1514 219.624 99.1514C220.184 99.1514 220.627 99.2676 220.83 99.3621L220.656 99.9651C220.402 99.8561 220.096 99.7689 219.602 99.7689C218.643 99.7689 218.004 100.314 218.004 101.171C218.004 102.028 218.607 102.61 219.573 102.61C219.886 102.61 220.125 102.566 220.234 102.515V101.563H219.442V100.975H220.983V102.973L220.975 102.966Z" fill="white"/>
<path d="M222.305 101.948C222.327 102.428 222.77 102.675 223.279 102.675C223.656 102.675 223.918 102.624 224.165 102.53L224.281 103.046C224.012 103.154 223.649 103.242 223.184 103.242C222.189 103.242 221.586 102.653 221.586 101.774C221.586 101.033 222.073 100.227 223.104 100.227C224.136 100.227 224.456 101.069 224.456 101.651C224.456 101.774 224.441 101.89 224.427 101.948H222.312H222.305ZM223.729 101.425C223.729 101.222 223.627 100.735 223.053 100.735C222.545 100.735 222.341 101.142 222.298 101.425H223.729Z" fill="white"/>
<path d="M225.044 102.479C225.225 102.588 225.574 102.711 225.857 102.711C226.206 102.711 226.351 102.573 226.351 102.392C226.351 102.188 226.221 102.101 225.836 101.985C225.225 101.81 224.964 101.498 224.971 101.142C224.971 100.633 225.414 100.227 226.133 100.227C226.475 100.227 226.787 100.306 226.969 100.408L226.816 100.931C226.693 100.866 226.424 100.75 226.133 100.75C225.865 100.75 225.705 100.873 225.705 101.055C225.705 101.236 225.865 101.331 226.257 101.454C226.831 101.622 227.078 101.883 227.085 102.334C227.085 102.835 226.678 103.242 225.843 103.242C225.45 103.242 225.116 103.154 224.876 103.031L225.029 102.479H225.044Z" fill="white"/>
<path d="M228.611 99.4561V100.299H229.345V100.866H228.611V102.064C228.611 102.413 228.691 102.624 229.011 102.624C229.149 102.624 229.258 102.609 229.323 102.587L229.338 103.161C229.221 103.205 229.018 103.249 228.771 103.249C228.48 103.249 228.248 103.147 228.11 102.994C227.95 102.82 227.877 102.537 227.877 102.181V100.873H227.441V100.306H227.877V99.6377L228.618 99.4633L228.611 99.4561Z" fill="white"/>
<path d="M231.706 103.168L231.655 102.841H231.634C231.452 103.074 231.118 103.241 230.704 103.241C230.064 103.241 229.737 102.798 229.737 102.383C229.737 101.664 230.391 101.279 231.59 101.286V101.25C231.59 101.097 231.532 100.749 230.951 100.749C230.645 100.749 230.311 100.85 230.101 100.981L229.948 100.494C230.188 100.349 230.587 100.226 231.074 100.226C232.055 100.226 232.346 100.829 232.346 101.468V102.463C232.346 102.739 232.36 102.994 232.396 103.168H231.706ZM230.268 99.8406C230.246 99.361 230.449 99.114 230.733 99.114C230.878 99.114 230.994 99.1721 231.132 99.2448C231.234 99.3029 231.321 99.3538 231.394 99.3538C231.496 99.3538 231.539 99.2957 231.561 99.085H231.931C231.946 99.579 231.779 99.797 231.466 99.797C231.307 99.797 231.19 99.7316 231.052 99.6589C230.936 99.5935 230.878 99.5572 230.813 99.5572C230.725 99.5572 230.675 99.6589 230.66 99.8333H230.282L230.268 99.8406ZM231.612 101.766C231.009 101.759 230.5 101.875 230.5 102.296C230.5 102.565 230.689 102.703 230.951 102.703C231.285 102.703 231.51 102.492 231.59 102.282C231.605 102.231 231.612 102.173 231.612 102.122V101.773V101.766Z" fill="white"/>
<path d="M236.167 101.701C236.167 102.725 235.376 103.249 234.54 103.249C233.661 103.249 232.963 102.675 232.963 101.766C232.963 100.858 233.625 100.233 234.598 100.233C235.572 100.233 236.167 100.858 236.167 101.708V101.701ZM233.755 101.745C233.755 102.319 234.097 102.704 234.569 102.704C235.041 102.704 235.383 102.355 235.383 101.73C235.383 101.265 235.143 100.771 234.576 100.771C234.01 100.771 233.755 101.243 233.755 101.745Z" fill="white"/>
<path d="M241.013 98.9404V102.355C241.013 102.668 241.02 102.987 241.035 103.169H240.352L240.323 102.675H240.308C240.112 103.038 239.72 103.242 239.262 103.242C238.528 103.242 237.911 102.668 237.911 101.774C237.911 100.822 238.565 100.226 239.328 100.226C239.771 100.226 240.09 100.408 240.236 100.619H240.25V98.9404H241.013ZM240.25 101.527C240.25 101.469 240.25 101.389 240.228 101.331C240.149 101.033 239.88 100.793 239.509 100.793C238.993 100.793 238.681 101.193 238.681 101.73C238.681 102.268 238.979 102.631 239.502 102.631C239.858 102.631 240.156 102.384 240.221 102.057C240.236 101.985 240.243 101.912 240.243 101.839V101.52L240.25 101.527Z" fill="white"/>
<path d="M244.857 101.701C244.857 102.725 244.065 103.249 243.229 103.249C242.35 103.249 241.653 102.675 241.653 101.766C241.653 100.858 242.314 100.233 243.287 100.233C244.261 100.233 244.857 100.858 244.857 101.708V101.701ZM242.445 101.745C242.445 102.319 242.786 102.704 243.258 102.704C243.731 102.704 244.072 102.355 244.072 101.73C244.072 101.265 243.832 100.771 243.266 100.771C242.699 100.771 242.445 101.243 242.445 101.745Z" fill="white"/>
<path d="M246.833 102.341C247.094 102.493 247.487 102.624 247.908 102.624C248.395 102.624 248.671 102.406 248.671 102.086C248.671 101.796 248.467 101.614 247.901 101.447C247.174 101.229 246.716 100.895 246.716 100.277C246.716 99.6161 247.305 99.1221 248.206 99.1221C248.693 99.1221 249.041 99.2165 249.281 99.3328L249.085 99.9358C248.932 99.8559 248.613 99.7251 248.191 99.7251C247.697 99.7251 247.494 99.9721 247.494 100.205C247.494 100.51 247.748 100.655 248.322 100.837C249.078 101.076 249.455 101.411 249.455 102.035C249.455 102.66 248.983 103.242 247.85 103.242C247.385 103.242 246.905 103.111 246.658 102.958L246.84 102.333L246.833 102.341Z" fill="white"/>
<path d="M250.698 101.948C250.72 102.428 251.163 102.675 251.672 102.675C252.049 102.675 252.311 102.624 252.558 102.53L252.674 103.046C252.405 103.154 252.042 103.242 251.577 103.242C250.582 103.242 249.979 102.653 249.979 101.774C249.979 101.033 250.466 100.227 251.497 100.227C252.529 100.227 252.849 101.069 252.849 101.651C252.849 101.774 252.834 101.89 252.82 101.948H250.705H250.698ZM252.122 101.425C252.122 101.222 252.02 100.735 251.446 100.735C250.938 100.735 250.734 101.142 250.691 101.425H252.122Z" fill="white"/>
<path d="M255.769 103.075C255.595 103.155 255.261 103.242 254.847 103.242C253.873 103.242 253.248 102.639 253.248 101.767C253.248 100.895 253.873 100.227 254.97 100.227C255.275 100.227 255.573 100.292 255.769 100.372L255.631 100.931C255.493 100.866 255.297 100.801 254.999 100.801C254.396 100.801 254.026 101.193 254.033 101.723C254.033 102.312 254.469 102.646 254.999 102.646C255.29 102.646 255.5 102.581 255.66 102.515L255.769 103.075Z" fill="white"/>
<path d="M257.324 99.4561V100.299H258.058V100.866H257.324V102.064C257.324 102.413 257.404 102.624 257.724 102.624C257.862 102.624 257.971 102.609 258.036 102.587L258.051 103.161C257.934 103.205 257.731 103.249 257.484 103.249C257.193 103.249 256.961 103.147 256.823 102.994C256.663 102.82 256.59 102.537 256.59 102.181V100.873H256.154V100.306H256.59V99.6377L257.331 99.4633L257.324 99.4561Z" fill="white"/>
<path d="M261.632 101.701C261.632 102.725 260.84 103.249 260.005 103.249C259.126 103.249 258.428 102.675 258.428 101.766C258.428 100.858 259.089 100.233 260.063 100.233C261.037 100.233 261.632 100.858 261.632 101.708V101.701ZM259.22 101.745C259.22 102.319 259.562 102.704 260.034 102.704C260.506 102.704 260.848 102.355 260.848 101.73C260.848 101.265 260.608 100.771 260.041 100.771C259.475 100.771 259.22 101.243 259.22 101.745Z" fill="white"/>
<path d="M262.272 101.258C262.272 100.836 262.272 100.553 262.25 100.291H262.904L262.933 100.873H262.954C263.107 100.429 263.47 100.219 263.812 100.219C263.884 100.219 263.928 100.219 263.993 100.233V100.938C263.921 100.923 263.855 100.909 263.754 100.909C263.361 100.909 263.114 101.141 263.056 101.476C263.049 101.541 263.042 101.606 263.042 101.679V103.161H262.279V101.25L262.272 101.258Z" fill="white"/>
<path d="M186.756 104.753V108.168C186.756 108.48 186.763 108.8 186.778 108.981H186.095L186.066 108.487H186.051C185.855 108.851 185.463 109.054 185.005 109.054C184.271 109.054 183.653 108.48 183.653 107.586C183.653 106.635 184.307 106.039 185.07 106.039C185.513 106.039 185.833 106.221 185.978 106.431H185.993V104.753H186.756ZM185.993 107.339C185.993 107.281 185.993 107.201 185.971 107.143C185.891 106.845 185.622 106.606 185.252 106.606C184.736 106.606 184.424 107.005 184.424 107.543C184.424 108.08 184.721 108.444 185.245 108.444C185.601 108.444 185.898 108.197 185.964 107.87C185.978 107.797 185.986 107.724 185.986 107.652V107.332L185.993 107.339Z" fill="white"/>
<path d="M189.349 108.981L189.299 108.654H189.277C189.095 108.886 188.761 109.053 188.347 109.053C187.707 109.053 187.381 108.61 187.381 108.196C187.381 107.477 188.034 107.092 189.233 107.099V107.063C189.233 106.91 189.175 106.561 188.594 106.561C188.289 106.561 187.954 106.663 187.744 106.794L187.591 106.307C187.831 106.162 188.231 106.038 188.717 106.038C189.698 106.038 189.989 106.641 189.989 107.28V108.276C189.989 108.552 190.003 108.806 190.04 108.981H189.349ZM189.255 107.586C188.652 107.578 188.143 107.695 188.143 108.116C188.143 108.385 188.332 108.523 188.594 108.523C188.928 108.523 189.153 108.312 189.233 108.101C189.248 108.051 189.255 107.992 189.255 107.942V107.593V107.586Z" fill="white"/>
<path d="M192.146 105.058C192.386 105.014 192.858 104.971 193.301 104.971C193.89 104.971 194.224 105.043 194.508 105.218C194.769 105.363 194.958 105.617 194.958 105.981C194.958 106.344 194.718 106.678 194.275 106.831V106.845C194.682 106.947 195.111 107.259 195.111 107.833C195.111 108.197 194.943 108.473 194.696 108.669C194.391 108.909 193.904 109.032 193.12 109.032C192.677 109.032 192.35 109.003 192.146 108.974V105.058ZM192.902 106.62H193.338C193.904 106.62 194.188 106.387 194.188 106.061C194.188 105.668 193.861 105.523 193.381 105.523C193.127 105.523 192.989 105.537 192.902 105.559V106.62ZM192.902 108.444C193.011 108.465 193.156 108.465 193.352 108.465C193.846 108.465 194.311 108.313 194.311 107.804C194.311 107.346 193.875 107.165 193.331 107.165H192.909V108.444H192.902Z" fill="white"/>
<path d="M197.545 108.981L197.494 108.654H197.472C197.291 108.886 196.956 109.053 196.542 109.053C195.903 109.053 195.576 108.61 195.576 108.196C195.576 107.477 196.23 107.092 197.429 107.099V107.063C197.429 106.91 197.371 106.561 196.797 106.561C196.491 106.561 196.157 106.663 195.947 106.794L195.794 106.307C196.034 106.162 196.433 106.038 196.92 106.038C197.901 106.038 198.192 106.641 198.192 107.28V108.276C198.192 108.552 198.206 108.806 198.242 108.981H197.552H197.545ZM197.45 107.586C196.847 107.578 196.339 107.695 196.339 108.116C196.339 108.385 196.528 108.523 196.789 108.523C197.124 108.523 197.349 108.312 197.429 108.101C197.443 108.051 197.45 107.992 197.45 107.942V107.593V107.586Z" fill="white"/>
<path d="M199.012 106.975C199.012 106.641 199.005 106.351 198.99 106.103H199.659L199.695 106.568H199.717C199.84 106.351 200.174 106.038 200.712 106.038C201.221 106.038 201.831 106.343 201.831 107.339V108.988H201.068V107.433C201.068 106.975 200.886 106.656 200.45 106.656C200.116 106.656 199.898 106.888 199.811 107.106C199.789 107.164 199.775 107.251 199.775 107.324V108.988H199.012V106.983V106.975Z" fill="white"/>
<path d="M204.41 108.981L204.359 108.654H204.337C204.156 108.886 203.822 109.053 203.407 109.053C202.768 109.053 202.441 108.61 202.441 108.196C202.441 107.477 203.095 107.092 204.294 107.099V107.063C204.294 106.91 204.236 106.561 203.655 106.561C203.349 106.561 203.015 106.663 202.804 106.794L202.652 106.307C202.892 106.162 203.291 106.038 203.778 106.038C204.759 106.038 205.049 106.641 205.049 107.28V108.276C205.049 108.552 205.064 108.806 205.1 108.981H204.41ZM204.316 107.586C203.713 107.578 203.204 107.695 203.204 108.116C203.204 108.385 203.393 108.523 203.655 108.523C203.989 108.523 204.214 108.312 204.294 108.101C204.308 108.051 204.316 107.992 204.316 107.942V107.593V107.586Z" fill="white"/>
<path d="M205.878 106.975C205.878 106.641 205.871 106.351 205.856 106.103H206.524L206.561 106.568H206.583C206.706 106.351 207.04 106.038 207.578 106.038C208.087 106.038 208.697 106.343 208.697 107.339V108.988H207.934V107.433C207.934 106.975 207.752 106.656 207.316 106.656C206.982 106.656 206.764 106.888 206.677 107.106C206.655 107.164 206.641 107.251 206.641 107.324V108.988H205.878V106.983V106.975Z" fill="white"/>
<path d="M211.276 108.981L211.225 108.654H211.203C211.022 108.886 210.688 109.053 210.273 109.053C209.634 109.053 209.307 108.61 209.307 108.196C209.307 107.477 209.961 107.092 211.16 107.099V107.063C211.16 106.91 211.102 106.561 210.52 106.561C210.215 106.561 209.881 106.663 209.67 106.794L209.518 106.307C209.758 106.162 210.157 106.038 210.644 106.038C211.625 106.038 211.915 106.641 211.915 107.28V108.276C211.915 108.552 211.93 108.806 211.966 108.981H211.276ZM211.182 107.586C210.579 107.578 210.07 107.695 210.07 108.116C210.07 108.385 210.259 108.523 210.52 108.523C210.855 108.523 211.08 108.312 211.16 108.101C211.174 108.051 211.182 107.992 211.182 107.942V107.593V107.586Z" fill="white"/>
<path d="M212.359 109.694C212.526 109.236 212.686 108.618 212.766 108.11L213.557 108.052C213.383 108.626 213.114 109.265 212.882 109.65L212.359 109.694Z" fill="white"/>
<path d="M215.512 105H216.275V108.349H218.105V108.989H215.519V105.007L215.512 105Z" fill="white"/>
<path d="M221.484 104.753V108.168C221.484 108.48 221.491 108.8 221.506 108.981H220.823L220.794 108.487H220.779C220.583 108.851 220.191 109.054 219.733 109.054C218.999 109.054 218.382 108.48 218.382 107.586C218.382 106.635 219.036 106.039 219.798 106.039C220.242 106.039 220.561 106.221 220.707 106.431H220.721V104.753H221.484ZM220.721 107.339C220.721 107.281 220.721 107.201 220.699 107.143C220.619 106.845 220.351 106.606 219.98 106.606C219.464 106.606 219.152 107.005 219.152 107.543C219.152 108.08 219.45 108.444 219.973 108.444C220.329 108.444 220.627 108.197 220.692 107.87C220.707 107.797 220.714 107.724 220.714 107.652V107.332L220.721 107.339Z" fill="white"/>
<path d="M224.085 108.981L224.034 108.654H224.012C223.83 108.886 223.496 109.053 223.082 109.053C222.443 109.053 222.116 108.61 222.116 108.196C222.116 107.477 222.77 107.092 223.968 107.099V107.063C223.968 106.91 223.91 106.561 223.329 106.561C223.024 106.561 222.69 106.663 222.479 106.794L222.327 106.307C222.566 106.162 222.966 106.038 223.453 106.038C224.433 106.038 224.724 106.641 224.724 107.28V108.276C224.724 108.552 224.739 108.806 224.775 108.981H224.085ZM223.99 107.586C223.387 107.578 222.879 107.695 222.879 108.116C222.879 108.385 223.068 108.523 223.329 108.523C223.663 108.523 223.889 108.312 223.968 108.101C223.983 108.051 223.99 107.992 223.99 107.942V107.593V107.586Z" fill="white"/>
<path d="M225.429 108.581C225.429 108.298 225.618 108.102 225.901 108.102C226.185 108.102 226.366 108.298 226.374 108.581C226.374 108.85 226.185 109.061 225.901 109.061C225.618 109.061 225.429 108.85 225.429 108.581Z" fill="white"/>
<path d="M137.787 104.418C137.787 106.14 137.809 107.862 137.78 109.584C137.758 110.543 137.344 111.349 136.574 111.945C136.269 112.185 135.898 112.294 135.521 112.345C134.554 112.461 133.588 112.468 132.622 112.468C132.462 112.468 132.462 112.468 132.462 112.316C132.462 111.945 132.462 111.567 132.462 111.197C132.462 111.102 132.491 111.066 132.593 111.066C133.021 111.066 133.45 111.081 133.879 111.066C134.453 111.052 135.012 110.943 135.491 110.587C135.906 110.281 136.153 109.86 136.262 109.359C136.262 109.352 136.262 109.344 136.262 109.337C136.291 109.134 136.276 109.119 136.073 109.119C135.281 109.119 134.489 109.119 133.69 109.119C131.285 109.105 129.243 107.484 128.757 105.13C128.43 103.554 128.727 102.086 129.788 100.829C130.631 99.8267 131.699 99.2018 132.999 99.0129C133.261 98.9766 133.523 98.9548 133.784 98.9476C134.315 98.933 134.845 98.9185 135.375 98.9258C135.651 98.9258 135.927 98.9911 136.203 99.0275C136.247 99.0275 136.298 99.042 136.342 99.042C136.777 99.042 137.213 99.042 137.649 99.042C137.773 99.042 137.802 99.0783 137.802 99.1946C137.802 100.938 137.802 102.682 137.802 104.426L137.787 104.418ZM136.254 104.135C136.254 103.002 136.254 101.868 136.254 100.735C136.254 100.633 136.218 100.568 136.124 100.553C135.927 100.517 135.731 100.444 135.535 100.444C134.838 100.444 134.14 100.43 133.457 100.495C132.426 100.59 131.59 101.098 130.965 101.919C130.268 102.842 130.13 103.888 130.384 104.992C130.718 106.438 132.12 107.651 133.842 107.68C134.598 107.695 135.346 107.68 136.102 107.68C136.254 107.68 136.254 107.68 136.254 107.521C136.254 106.387 136.254 105.261 136.254 104.128V104.135Z" fill="white"/>
<path d="M154.149 109.119C152.986 109.119 151.824 109.119 150.661 109.119C150.509 109.119 150.509 109.119 150.509 108.96C150.509 108.516 150.509 108.073 150.509 107.63C150.509 107.514 150.545 107.485 150.654 107.485C152.892 107.485 155.13 107.485 157.367 107.485C157.963 107.485 158.435 107.23 158.726 106.707C159.184 105.879 158.682 104.84 157.731 104.644C157.563 104.608 157.396 104.6 157.229 104.6C155.813 104.6 154.396 104.608 152.979 104.586C152.144 104.571 151.468 104.201 150.974 103.525C150.581 102.995 150.378 102.399 150.393 101.738C150.414 100.99 150.698 100.35 151.235 99.8271C151.62 99.4493 152.071 99.1877 152.601 99.0933C152.797 99.057 153.008 99.0352 153.212 99.0352C155.493 99.0352 157.767 99.0352 160.048 99.0352C160.15 99.0352 160.201 99.0884 160.201 99.195C160.201 99.6164 160.201 100.038 160.201 100.452C160.201 100.563 160.145 100.619 160.034 100.619C157.818 100.619 155.602 100.619 153.386 100.619C153.081 100.619 152.79 100.655 152.536 100.837C152.093 101.142 151.904 101.658 152.056 102.174C152.202 102.661 152.681 103.017 153.197 103.017C154.636 103.017 156.074 103.017 157.513 103.017C157.941 103.017 158.363 103.082 158.77 103.242C159.474 103.525 159.968 104.034 160.281 104.702C160.76 105.705 160.746 106.715 160.164 107.674C159.685 108.458 158.951 108.909 158.05 109.061C157.825 109.098 157.6 109.112 157.375 109.112C156.299 109.112 155.231 109.112 154.156 109.112L154.149 109.119Z" fill="white"/>
<path d="M148.293 105.741C148.62 106.053 148.939 106.373 149.266 106.692C149.332 106.758 149.288 106.816 149.259 106.874C148.99 107.339 148.641 107.731 148.213 108.051C147.421 108.647 146.52 108.996 145.546 109.17C144.987 109.272 144.42 109.293 143.861 109.257C142.72 109.184 141.696 108.807 140.795 108.095C140.141 107.579 139.611 106.961 139.262 106.198C139.008 105.646 138.877 105.058 138.84 104.447C138.797 103.764 138.877 103.103 139.095 102.457C139.429 101.454 140.068 100.677 140.889 100.037C141.609 99.4779 142.415 99.1292 143.316 98.9839C143.919 98.8822 144.522 98.8894 145.132 98.9475C145.75 99.0057 146.353 99.1219 146.927 99.3471C147.813 99.6959 148.54 100.248 149.034 101.076C149.346 101.592 149.542 102.159 149.615 102.755C149.673 103.241 149.68 103.728 149.717 104.222C149.717 104.28 149.702 104.338 149.702 104.397C149.702 104.6 149.709 104.593 149.484 104.593C147.036 104.593 144.587 104.593 142.146 104.593C142.025 104.593 141.965 104.532 141.965 104.411C141.965 104.113 141.965 103.815 141.965 103.517C141.965 103.411 142.018 103.358 142.124 103.358C144.006 103.358 145.888 103.358 147.77 103.358C147.98 103.358 147.988 103.358 147.944 103.161C147.828 102.544 147.61 101.97 147.196 101.483C146.774 100.989 146.229 100.684 145.605 100.539C144.682 100.313 143.745 100.284 142.851 100.64C141.609 101.134 140.729 101.992 140.453 103.336C140.199 104.556 140.49 105.653 141.34 106.583C141.885 107.186 142.553 107.579 143.36 107.731C143.781 107.811 144.21 107.804 144.638 107.768C145.278 107.717 145.895 107.572 146.484 107.332C147.05 107.099 147.573 106.794 147.951 106.307C148.082 106.14 148.176 105.951 148.3 105.762L148.293 105.741Z" fill="white"/>
<path d="M161.181 102.748C161.181 100.677 161.181 98.6137 161.181 96.5431C161.181 96.4317 161.237 96.376 161.349 96.376C161.763 96.376 162.177 96.376 162.584 96.376C162.693 96.376 162.722 96.4123 162.722 96.5213C162.722 97.2987 162.722 98.0833 162.722 98.8607C162.722 99.0424 162.722 99.0424 162.903 99.0424C163.695 99.0424 164.487 99.0351 165.286 99.0424C166.311 99.0569 167.27 99.3184 168.134 99.8924C169.297 100.663 169.994 101.752 170.278 103.104C170.51 104.215 170.401 105.312 169.864 106.329C169.152 107.688 168.025 108.553 166.551 108.952C166.115 109.069 165.671 109.119 165.221 109.119C163.921 109.119 162.62 109.119 161.32 109.119C161.203 109.119 161.174 109.083 161.174 108.974C161.174 106.896 161.174 104.826 161.174 102.748H161.181ZM162.722 104.005C162.722 105.123 162.722 106.25 162.722 107.368C162.722 107.536 162.722 107.536 162.896 107.536C163.615 107.536 164.342 107.55 165.061 107.536C165.403 107.528 165.744 107.499 166.071 107.412C167.146 107.143 167.967 106.526 168.432 105.494C168.679 104.949 168.745 104.368 168.694 103.772C168.643 103.125 168.454 102.537 168.069 102.014C167.321 100.997 166.304 100.481 165.047 100.459C164.335 100.445 163.623 100.459 162.918 100.459C162.782 100.459 162.714 100.527 162.714 100.663C162.714 101.774 162.714 102.893 162.714 104.005H162.722Z" fill="white"/>
<path d="M178.364 107.267C178.364 107.318 178.372 107.347 178.372 107.383C178.372 107.826 178.372 108.27 178.372 108.713C178.372 108.807 178.343 108.851 178.248 108.88C177.594 109.091 176.926 109.207 176.236 109.163C175.044 109.083 173.983 108.662 173.082 107.87C172.29 107.173 171.717 106.337 171.499 105.298C171.092 103.351 171.571 101.665 173.053 100.307C173.751 99.6674 174.594 99.2823 175.531 99.137C175.938 99.0716 176.352 99.0499 176.759 99.0426C177.965 99.0281 179.178 99.0426 180.384 99.0426C180.495 99.0426 180.551 99.0983 180.551 99.2097C180.551 102.465 180.551 105.719 180.551 108.967C180.551 109.074 180.498 109.127 180.391 109.127C179.977 109.127 179.563 109.127 179.156 109.127C179.055 109.127 179.004 109.076 179.004 108.974C179.004 106.206 179.004 103.431 179.004 100.663C179.004 100.532 178.938 100.467 178.808 100.467C178.132 100.467 177.456 100.467 176.78 100.467C175.662 100.467 174.703 100.852 173.932 101.673C173.388 102.261 173.082 102.951 173.024 103.751C172.944 104.717 173.17 105.596 173.802 106.352C174.405 107.071 175.16 107.507 176.098 107.645C176.831 107.746 177.536 107.674 178.212 107.361C178.263 107.34 178.313 107.311 178.379 107.281L178.364 107.267Z" fill="white"/>
</g>
<defs>
<clipPath id="clip0_2233_209">
<rect width="347" height="121" fill="white"/>
</clipPath>
</defs>
</svg>
